<mxfile host="app.diagrams.net" modified="2022-08-23T11:17:43.788Z" agent="5.0 (Macintosh; Intel Mac OS X 10_15_7) AppleWebKit/537.36 (KHTML, like Gecko) Chrome/104.0.0.0 Safari/537.36" etag="MnFDHjblRcssrdzUuTd_" version="20.0.3" type="github">
  <diagram id="kgpKYQtTHZ0yAKxKKP6v" name="Page-1">
    <mxGraphModel dx="2489" dy="781" grid="1" gridSize="10" guides="1" tooltips="1" connect="1" arrows="1" fold="1" page="1" pageScale="1" pageWidth="850" pageHeight="1100" math="0" shadow="0">
      <root>
        <mxCell id="0" />
        <mxCell id="1" parent="0" />
        <mxCell id="fWADdGJoOV3Yh865SYfE-3" value="" style="edgeStyle=orthogonalEdgeStyle;rounded=0;orthogonalLoop=1;jettySize=auto;html=1;fontSize=14;" edge="1" parent="1" target="fWADdGJoOV3Yh865SYfE-2">
          <mxGeometry relative="1" as="geometry">
            <mxPoint x="156.58705882352973" y="20" as="sourcePoint" />
          </mxGeometry>
        </mxCell>
        <mxCell id="fWADdGJoOV3Yh865SYfE-1" value="&lt;b style=&quot;font-size: 14px;&quot;&gt;Excute when location callback(about every 5s)&lt;/b&gt;" style="text;html=1;align=center;verticalAlign=middle;resizable=0;points=[];autosize=1;strokeColor=none;fillColor=none;strokeWidth=1;fontSize=14;" vertex="1" parent="1">
          <mxGeometry x="20" width="330" height="30" as="geometry" />
        </mxCell>
        <mxCell id="fWADdGJoOV3Yh865SYfE-5" style="edgeStyle=orthogonalEdgeStyle;rounded=0;orthogonalLoop=1;jettySize=auto;html=1;entryX=0.5;entryY=0;entryDx=0;entryDy=0;fontSize=14;startArrow=none;" edge="1" parent="1" target="fWADdGJoOV3Yh865SYfE-4">
          <mxGeometry relative="1" as="geometry">
            <mxPoint x="-95.05999999999995" y="220" as="sourcePoint" />
          </mxGeometry>
        </mxCell>
        <mxCell id="fWADdGJoOV3Yh865SYfE-8" style="edgeStyle=orthogonalEdgeStyle;rounded=0;orthogonalLoop=1;jettySize=auto;html=1;entryX=0.5;entryY=0;entryDx=0;entryDy=0;fontSize=14;" edge="1" parent="1" source="fWADdGJoOV3Yh865SYfE-2" target="fWADdGJoOV3Yh865SYfE-7">
          <mxGeometry relative="1" as="geometry" />
        </mxCell>
        <mxCell id="fWADdGJoOV3Yh865SYfE-9" value="Y" style="edgeLabel;html=1;align=center;verticalAlign=middle;resizable=0;points=[];fontSize=14;" vertex="1" connectable="0" parent="fWADdGJoOV3Yh865SYfE-8">
          <mxGeometry x="-0.113" y="1" relative="1" as="geometry">
            <mxPoint as="offset" />
          </mxGeometry>
        </mxCell>
        <mxCell id="fWADdGJoOV3Yh865SYfE-2" value="&lt;span style=&quot;background-color: rgb(255, 255, 255);&quot;&gt;location.speed &amp;gt;&amp;nbsp; the&amp;nbsp;threshold(Absolutely ideally 0, currently 50cm/s).&lt;br&gt;&lt;/span&gt;It means whether is moving" style="rhombus;whiteSpace=wrap;html=1;fontSize=14;strokeWidth=1;" vertex="1" parent="1">
          <mxGeometry x="29.939999999999998" y="30" width="253.12" height="180" as="geometry" />
        </mxCell>
        <mxCell id="fWADdGJoOV3Yh865SYfE-30" style="edgeStyle=orthogonalEdgeStyle;rounded=0;orthogonalLoop=1;jettySize=auto;html=1;fontSize=14;" edge="1" parent="1" source="fWADdGJoOV3Yh865SYfE-4">
          <mxGeometry relative="1" as="geometry">
            <mxPoint x="74.94" y="390" as="targetPoint" />
            <Array as="points">
              <mxPoint x="74.94" y="300" />
            </Array>
          </mxGeometry>
        </mxCell>
        <mxCell id="fWADdGJoOV3Yh865SYfE-31" value="Y" style="edgeLabel;html=1;align=center;verticalAlign=middle;resizable=0;points=[];fontSize=14;" vertex="1" connectable="0" parent="fWADdGJoOV3Yh865SYfE-30">
          <mxGeometry x="-0.5795" y="-1" relative="1" as="geometry">
            <mxPoint as="offset" />
          </mxGeometry>
        </mxCell>
        <mxCell id="fWADdGJoOV3Yh865SYfE-61" value="&lt;font color=&quot;#000000&quot;&gt;N&lt;/font&gt;" style="edgeStyle=orthogonalEdgeStyle;rounded=0;orthogonalLoop=1;jettySize=auto;html=1;fontSize=14;fontColor=#CC0000;strokeColor=#000000;entryX=0.5;entryY=0;entryDx=0;entryDy=0;" edge="1" parent="1" source="fWADdGJoOV3Yh865SYfE-4" target="fWADdGJoOV3Yh865SYfE-56">
          <mxGeometry relative="1" as="geometry">
            <mxPoint x="-210" y="370" as="targetPoint" />
            <Array as="points">
              <mxPoint x="-205" y="300" />
            </Array>
          </mxGeometry>
        </mxCell>
        <mxCell id="fWADdGJoOV3Yh865SYfE-4" value="If there is state record" style="rhombus;whiteSpace=wrap;html=1;fontSize=14;strokeWidth=1;" vertex="1" parent="1">
          <mxGeometry x="-140" y="260" width="89.94" height="80" as="geometry" />
        </mxCell>
        <mxCell id="fWADdGJoOV3Yh865SYfE-12" style="edgeStyle=orthogonalEdgeStyle;rounded=0;orthogonalLoop=1;jettySize=auto;html=1;fontSize=14;entryX=0.5;entryY=0;entryDx=0;entryDy=0;" edge="1" parent="1" source="fWADdGJoOV3Yh865SYfE-7" target="fWADdGJoOV3Yh865SYfE-48">
          <mxGeometry relative="1" as="geometry">
            <mxPoint x="724" y="320" as="targetPoint" />
          </mxGeometry>
        </mxCell>
        <mxCell id="fWADdGJoOV3Yh865SYfE-13" value="Y" style="edgeLabel;html=1;align=center;verticalAlign=middle;resizable=0;points=[];fontSize=14;" vertex="1" connectable="0" parent="fWADdGJoOV3Yh865SYfE-12">
          <mxGeometry x="-0.5964" y="-3" relative="1" as="geometry">
            <mxPoint as="offset" />
          </mxGeometry>
        </mxCell>
        <mxCell id="fWADdGJoOV3Yh865SYfE-7" value="If there is state record" style="rhombus;whiteSpace=wrap;html=1;fontSize=14;strokeWidth=1;" vertex="1" parent="1">
          <mxGeometry x="670" y="160" width="108.44" height="90" as="geometry" />
        </mxCell>
        <mxCell id="fWADdGJoOV3Yh865SYfE-14" value="We save current state record. It will contains the assingment id, assingment type,&lt;br&gt;assignment status,&lt;br&gt;and the&amp;nbsp;timestamp" style="rounded=1;whiteSpace=wrap;html=1;fontSize=14;strokeWidth=1;direction=south;" vertex="1" parent="1">
          <mxGeometry x="-280.06" y="630" width="150" height="150" as="geometry" />
        </mxCell>
        <mxCell id="fWADdGJoOV3Yh865SYfE-39" value="N" style="edgeStyle=orthogonalEdgeStyle;rounded=0;orthogonalLoop=1;jettySize=auto;html=1;entryX=0.5;entryY=0;entryDx=0;entryDy=0;fontSize=14;" edge="1" parent="1" source="fWADdGJoOV3Yh865SYfE-32" target="fWADdGJoOV3Yh865SYfE-35">
          <mxGeometry relative="1" as="geometry" />
        </mxCell>
        <mxCell id="fWADdGJoOV3Yh865SYfE-40" value="Y" style="edgeStyle=orthogonalEdgeStyle;rounded=0;orthogonalLoop=1;jettySize=auto;html=1;entryX=0;entryY=0.5;entryDx=0;entryDy=0;fontSize=14;" edge="1" parent="1" source="fWADdGJoOV3Yh865SYfE-32" target="fWADdGJoOV3Yh865SYfE-38">
          <mxGeometry relative="1" as="geometry">
            <mxPoint x="209.94" y="470" as="targetPoint" />
          </mxGeometry>
        </mxCell>
        <mxCell id="fWADdGJoOV3Yh865SYfE-32" value="Compare the record assignment id with current assignment id.&lt;br&gt;Whether the assingment&lt;br&gt;&amp;nbsp;has changed" style="rhombus;whiteSpace=wrap;html=1;fontSize=14;strokeWidth=1;" vertex="1" parent="1">
          <mxGeometry x="-15.060000000000002" y="390" width="180" height="160" as="geometry" />
        </mxCell>
        <mxCell id="fWADdGJoOV3Yh865SYfE-51" style="edgeStyle=orthogonalEdgeStyle;rounded=0;orthogonalLoop=1;jettySize=auto;html=1;fontSize=14;entryX=0.5;entryY=1;entryDx=0;entryDy=0;fontColor=#FF0000;strokeColor=#CC0000;" edge="1" parent="1" source="fWADdGJoOV3Yh865SYfE-35" target="fWADdGJoOV3Yh865SYfE-48">
          <mxGeometry relative="1" as="geometry">
            <mxPoint x="750" y="695" as="targetPoint" />
          </mxGeometry>
        </mxCell>
        <mxCell id="fWADdGJoOV3Yh865SYfE-52" value="&lt;font color=&quot;#cc0000&quot;&gt;Y&lt;/font&gt;" style="edgeLabel;html=1;align=center;verticalAlign=middle;resizable=0;points=[];fontSize=14;" vertex="1" connectable="0" parent="fWADdGJoOV3Yh865SYfE-51">
          <mxGeometry x="-0.2325" relative="1" as="geometry">
            <mxPoint as="offset" />
          </mxGeometry>
        </mxCell>
        <mxCell id="fWADdGJoOV3Yh865SYfE-35" value="Compare the record assingment status with current assingment status.&lt;br&gt;Whether assingment status has changed" style="rhombus;whiteSpace=wrap;html=1;fontSize=14;strokeWidth=1;fontColor=#FF0000;strokeColor=#FF0000;" vertex="1" parent="1">
          <mxGeometry x="-20" y="620" width="184.94" height="150" as="geometry" />
        </mxCell>
        <mxCell id="fWADdGJoOV3Yh865SYfE-49" style="edgeStyle=orthogonalEdgeStyle;rounded=0;orthogonalLoop=1;jettySize=auto;html=1;fontSize=14;" edge="1" parent="1" source="fWADdGJoOV3Yh865SYfE-38" target="fWADdGJoOV3Yh865SYfE-48">
          <mxGeometry relative="1" as="geometry">
            <Array as="points">
              <mxPoint x="570" y="470" />
              <mxPoint x="570" y="470" />
            </Array>
          </mxGeometry>
        </mxCell>
        <mxCell id="fWADdGJoOV3Yh865SYfE-50" value="N" style="edgeLabel;html=1;align=center;verticalAlign=middle;resizable=0;points=[];fontSize=14;" vertex="1" connectable="0" parent="fWADdGJoOV3Yh865SYfE-49">
          <mxGeometry x="-0.3716" y="2" relative="1" as="geometry">
            <mxPoint x="13" y="-3" as="offset" />
          </mxGeometry>
        </mxCell>
        <mxCell id="fWADdGJoOV3Yh865SYfE-38" value="The record assignment type is break and record assingment status is ARRIVED.&amp;nbsp;&lt;br&gt;&lt;b&gt;NOTE:COR will recived the new&amp;nbsp;&lt;br&gt;assingment at holding locaiton.&lt;br&gt;&lt;/b&gt;" style="rhombus;whiteSpace=wrap;html=1;fontSize=14;strokeWidth=1;" vertex="1" parent="1">
          <mxGeometry x="280" y="370" width="240" height="205" as="geometry" />
        </mxCell>
        <mxCell id="fWADdGJoOV3Yh865SYfE-43" value="" style="edgeStyle=orthogonalEdgeStyle;rounded=0;orthogonalLoop=1;jettySize=auto;html=1;fontSize=14;endArrow=none;" edge="1" parent="1" source="fWADdGJoOV3Yh865SYfE-2">
          <mxGeometry relative="1" as="geometry">
            <mxPoint x="30.02271895424832" y="130.0588235294117" as="sourcePoint" />
            <mxPoint x="-95" y="240" as="targetPoint" />
          </mxGeometry>
        </mxCell>
        <mxCell id="fWADdGJoOV3Yh865SYfE-44" value="N" style="edgeLabel;html=1;align=center;verticalAlign=middle;resizable=0;points=[];fontSize=14;" vertex="1" connectable="0" parent="fWADdGJoOV3Yh865SYfE-43">
          <mxGeometry x="-0.05" y="-4" relative="1" as="geometry">
            <mxPoint x="54" y="-12" as="offset" />
          </mxGeometry>
        </mxCell>
        <mxCell id="fWADdGJoOV3Yh865SYfE-48" value="1.Accoridng to the reord assignment info and the record timestamp. Check wether need to report&amp;nbsp;corresponding event.&lt;br&gt;2. Clear the record." style="whiteSpace=wrap;html=1;aspect=fixed;fontSize=14;strokeWidth=1;" vertex="1" parent="1">
          <mxGeometry x="599.22" y="360" width="250" height="250" as="geometry" />
        </mxCell>
        <mxCell id="fWADdGJoOV3Yh865SYfE-62" style="edgeStyle=orthogonalEdgeStyle;rounded=0;orthogonalLoop=1;jettySize=auto;html=1;fontSize=14;fontColor=#000000;strokeColor=#000000;" edge="1" parent="1" source="fWADdGJoOV3Yh865SYfE-56" target="fWADdGJoOV3Yh865SYfE-14">
          <mxGeometry relative="1" as="geometry" />
        </mxCell>
        <mxCell id="fWADdGJoOV3Yh865SYfE-63" value="Y" style="edgeLabel;html=1;align=center;verticalAlign=middle;resizable=0;points=[];fontSize=14;fontColor=#000000;" vertex="1" connectable="0" parent="fWADdGJoOV3Yh865SYfE-62">
          <mxGeometry x="-0.1049" relative="1" as="geometry">
            <mxPoint as="offset" />
          </mxGeometry>
        </mxCell>
        <mxCell id="fWADdGJoOV3Yh865SYfE-56" value="Current asingment status &amp;gt;= &lt;font face=&quot;JetBrains Mono, monospace&quot; color=&quot;#660e7a&quot;&gt;&lt;i&gt;IN_TRANSIT&lt;/i&gt;&lt;/font&gt;" style="rhombus;whiteSpace=wrap;html=1;fontSize=14;strokeWidth=1;" vertex="1" parent="1">
          <mxGeometry x="-290.06" y="400" width="170" height="120" as="geometry" />
        </mxCell>
      </root>
    </mxGraphModel>
  </diagram>
</mxfile>
